<svg width="118" height="20" viewBox="0 0 118 20" fill="none" xmlns="http://www.w3.org/2000/svg">
<path d="M9.59479 0L12.3131 5.85334L18.72 6.62984L13.9931 11.0239L15.2345 17.3571L9.59479 14.2195L3.95511 17.3571L5.19645 11.0239L0.469603 6.62984L6.87647 5.85334L9.59479 0Z" fill="#FFC633"/>
<path d="M34.2974 0L37.0157 5.85334L43.4226 6.62984L38.6958 11.0239L39.9371 17.3571L34.2974 14.2195L28.6578 17.3571L29.8991 11.0239L25.1722 6.62984L31.5791 5.85334L34.2974 0Z" fill="#FFC633"/>
<path d="M58.9999 0L61.7183 5.85334L68.1251 6.62984L63.3983 11.0239L64.6396 17.3571L58.9999 14.2195L53.3603 17.3571L54.6016 11.0239L49.8748 6.62984L56.2816 5.85334L58.9999 0Z" fill="#FFC633"/>
<path d="M83.7026 0L86.4209 5.85334L92.8278 6.62984L88.1009 11.0239L89.3423 17.3571L83.7026 14.2195L78.0629 17.3571L79.3042 11.0239L74.5774 6.62984L80.9843 5.85334L83.7026 0Z" fill="#FFC633"/>
<path d="M108.405 0L111.124 5.85334L117.53 6.62984L112.804 11.0239L114.045 17.3571L108.405 14.2195L102.766 17.3571L104.007 11.0239L99.28 6.62984L105.687 5.85334L108.405 0Z" fill="#FFC633"/>
</svg>
